<svg width="19" height="17" viewBox="0 0 19 17" fill="none" xmlns="http://www.w3.org/2000/svg">
<path d="M9.4375 16.875C9.03125 16.875 8.625 16.7188 8.3125 16.4375C7.59375 15.8125 6.9375 15.25 6.34375 14.75C4.5625 13.2188 3 11.9375 1.90625 10.625C0.625 9.0625 0 7.59375 0 5.9375C0 4.34375 0.5625 2.84375 1.5625 1.75C2.59375 0.625 4.03125 0 5.5625 0C6.71875 0 7.8125 0.375 8.75 1.09375C9 1.28125 9.21875 1.46875 9.4375 1.71875C9.65625 1.5 9.875 1.28125 10.125 1.09375C11.0625 0.375 12.125 0 13.3125 0C14.875 0 16.2812 0.625 17.3125 1.75C18.3438 2.84375 18.875 4.34375 18.875 5.9375C18.875 7.59375 18.2812 9.0625 16.9688 10.625C15.875 11.9375 14.3125 13.25 12.5313 14.75C11.9375 15.25 11.25 15.8438 10.5312 16.4375C10.25 16.7188 9.84375 16.875 9.4375 16.875ZM5.5625 1.40625C4.40625 1.40625 3.34375 1.875 2.5625 2.6875C1.8125 3.53125 1.40625 4.6875 1.40625 5.9375C1.40625 7.21875 1.90625 8.4375 2.96875 9.71875C4 10.9375 5.5 12.2188 7.21875 13.6875C7.8125 14.1875 8.5 14.7812 9.21875 15.4062C9.34375 15.5 9.53125 15.5 9.65625 15.4062C10.375 14.7812 11.0625 14.2188 11.6562 13.6875C13.4062 12.1875 14.9062 10.9375 15.9062 9.71875C16.9688 8.4375 17.4688 7.21875 17.4688 5.9375C17.4688 4.6875 17.0312 3.53125 16.2812 2.71875C15.5 1.875 14.4375 1.40625 13.3125 1.40625C12.4688 1.40625 11.6875 1.6875 11 2.1875C10.7188 2.40625 10.4688 2.65625 10.2188 2.9375C10.0312 3.15625 9.75 3.3125 9.4375 3.3125C9.125 3.3125 8.875 3.1875 8.65625 2.9375C8.40625 2.65625 8.15625 2.40625 7.875 2.1875C7.21875 1.6875 6.4375 1.40625 5.5625 1.40625Z" fill="#737373"/>
</svg>
